<svg width="33" height="31" viewBox="0 0 33 31" fill="none" xmlns="http://www.w3.org/2000/svg">
<path fill-rule="evenodd" clip-rule="evenodd" d="M16.8796 23.0776C18.6632 22.2321 26.125 18.2965 26.125 11.6252C26.125 6.63159 21.8157 2.5835 16.5 2.5835C11.1843 2.5835 6.875 6.63159 6.875 11.6252C6.875 18.2965 14.3368 22.2321 16.1204 23.0776C16.3635 23.1928 16.6365 23.1928 16.8796 23.0776ZM16.5 15.5002C18.7782 15.5002 20.625 13.7653 20.625 11.6252C20.625 9.48506 18.7782 7.75016 16.5 7.75016C14.2218 7.75016 12.375 9.48506 12.375 11.6252C12.375 13.7653 14.2218 15.5002 16.5 15.5002Z" fill="white"/>
<path d="M24.8355 21.3125C25.6803 21.9016 26.125 22.5698 26.125 23.25C26.125 23.9302 25.6803 24.5984 24.8355 25.1875C23.9907 25.7766 22.7757 26.2657 21.3125 26.6058C19.8493 26.946 18.1895 27.125 16.5 27.125C14.8105 27.125 13.1507 26.946 11.6875 26.6058C10.2243 26.2657 9.00928 25.7766 8.16451 25.1875C7.31974 24.5984 6.875 23.9302 6.875 23.25C6.875 22.5698 7.31974 21.9016 8.16451 21.3125" stroke="white" stroke-width="2" stroke-linecap="round"/>
</svg>
