<svg width="78" height="43" viewBox="0 0 78 43" fill="none" xmlns="http://www.w3.org/2000/svg">
    <g clip-path="url(#clip0_47_35)">
        <path d="M51.1524 13.9047L51.8509 12.3218L50.6932 11.748L50.124 13.3676L51.1524 13.9047Z"
            fill="white" />
        <path
            d="M25.0464 2.76712C30.5277 1.11907 37.1635 0.459846 38.9712 2.27474C39.521 2.82409 39.7894 3.56877 39.7894 4.54133C39.7894 9.30237 31.7339 15.0075 16.0789 18.9506C17.4824 15.0441 18.2812 12.5822 18.2974 12.5334L17.4469 12.098C17.4307 12.1509 16.5317 14.8732 14.8307 19.2558C13.0585 19.679 11.1991 20.0819 9.24262 20.4603V22.4787C10.8628 22.1653 12.4344 21.8235 13.964 21.4573C12.6964 24.6273 11.0988 28.428 9.18441 32.5908L10.5491 33.2989C12.4247 28.7616 14.0319 24.554 15.2899 21.1277C30.5212 17.2497 40.7078 10.747 40.7078 4.54133C40.7078 3.21474 40.3165 2.14859 39.5469 1.37543C37.4804 -0.695828 31.0257 -0.272623 24.8459 1.64807C9.87645 6.28297 2.95605 18.9343 2.95605 18.9343L4.19461 19.9395C4.19461 19.9395 11.9299 6.71432 25.0464 2.76712Z"
            fill="white" />
        <path
            d="M63.7418 12.8548C62.4709 14.1367 62.0537 15.3615 62.0537 16.8875C62.0537 18.8001 63.0109 19.9964 64.8801 19.9964C69.2749 19.9964 77.6763 12.2607 77.9997 11.9677L77.1557 10.515C77.1557 10.515 69.097 19.1663 64.8057 19.1663C62.9236 19.1663 62.9365 17.1601 62.9365 16.684C65.4783 16.741 67.8261 15.7644 68.9579 14.157C69.4301 13.4897 69.6338 12.7735 69.5497 12.0858C69.4851 11.5567 69.2134 11.1498 68.7833 10.9382C67.6385 10.3767 65.3296 11.2556 63.7418 12.8589V12.8548ZM68.641 12.2567C68.6798 12.5903 68.5505 12.9932 68.2691 13.3879C67.506 14.4744 65.653 15.5284 63.1823 15.5284H63.1403C63.4249 14.7471 63.9423 14.1245 64.3142 13.7501C65.7338 12.3218 67.7 11.6381 68.4502 12.0044C68.6249 12.0898 68.6378 12.1916 68.6443 12.2526L68.641 12.2567Z"
            fill="white" />
        <path
            d="M60.188 22.7676C60.728 19.0971 61.2843 15.3167 61.5785 14.0675C61.7144 13.6036 61.8631 13.3065 61.8631 13.3065L61.1226 12.4764C61.1226 12.4764 60.8445 13.335 60.741 13.6239C59.7482 16.3218 57.2452 20.2487 55.1562 20.6475C54.6808 20.7411 54.338 20.619 54.2313 19.7441C54.1149 18.7878 54.5223 17.8397 55.1659 16.9892C55.2273 16.9241 55.292 16.8631 55.347 16.802L55.3308 16.7776C56.5823 15.2557 58.5549 14.1 59.4895 13.921V12.7816C58.4579 12.981 56.2589 14.1733 54.7778 15.9108L54.7713 15.9027C54.4188 16.2567 53.9887 16.7125 53.5134 17.213C51.9514 18.8611 48.9601 22.0066 48.1323 22.0066C47.2333 22.0066 50.4994 15.8905 50.6482 15.5202C50.6482 15.5161 49.5616 14.9179 49.5616 14.9179C49.3999 15.2638 49.1994 15.6992 48.986 16.1876C47.3109 19.5203 44.1967 22.031 43.0907 22.8286C43.1942 22.1897 44.8014 17.0462 46.1726 12.2119C51.337 10.0918 59.2308 7.20261 68.6865 4.90754V3.5484C59.2437 6.00217 51.5666 8.93205 46.4766 11.1213C47.0554 9.03378 47.5664 7.07239 47.8542 5.64815L46.5089 5.3633C46.137 7.67057 45.6616 9.78253 45.1636 11.6951C41.6355 13.2577 39.6629 14.3238 39.6208 14.3442V15.1295C39.6208 15.1295 41.5223 14.1651 44.879 12.749C44.8467 12.867 44.8144 12.9891 44.7788 13.1071C43.7698 16.9648 40.5489 20.9201 37.9489 22.8123C37.9845 22.3484 37.9748 21.8276 37.9037 21.2497C37.8649 20.9283 37.8552 20.6312 37.8649 20.3626C38.9385 19.1744 40.08 17.6525 40.08 17.6525C40.08 17.1764 39.7534 16.7939 39.5432 16.6881C39.1067 16.4765 38.5343 16.8183 38.143 17.213C37.8131 17.5467 37.1502 18.7146 36.9691 20.1307C34.631 22.6821 31.3972 25.8846 28.9104 26.3648C27.8109 26.5723 27.1221 26.198 27.0154 25.3231C27.0154 25.3109 27.0154 25.2946 27.0089 25.2824C29.8676 24.5255 33.2825 23.0768 33.04 21.0707C32.9688 20.4929 32.6681 20.0452 32.1863 19.8092C31.0382 19.2477 28.9815 19.9232 27.5974 21.3148C26.7437 22.1775 26.2328 23.2193 26.1034 24.3302C23.7233 25.3475 23.2997 22.9751 23.2124 22.263L22.6594 21.9578C21.9253 21.7584 20.5089 23.7076 19.0537 26.1695L19.9462 23.1867L19.0892 22.7798L16.8935 30.1207L17.7052 30.6416C19.39 27.4106 21.3141 23.8581 22.1323 23.1948C22.2843 24.0331 23.1251 26.2997 26.1099 25.5021C26.2586 26.7148 27.1091 27.8786 29.0462 27.5042C31.4004 27.0525 34.0619 24.2081 35.7564 22.5519C35.8955 22.4135 36.387 21.9334 36.982 21.3108C36.9853 21.3474 36.9917 21.3881 36.995 21.4288C37.0984 22.2915 37.0435 22.971 36.9076 23.4797C36.2253 24.0901 34.88 24.2488 34.88 24.2488C34.88 24.2488 34.7216 24.5499 34.7216 24.8429C34.7216 25.5062 35.2034 25.9457 35.7596 25.9457C36.9788 25.9457 37.7549 23.9599 37.7549 23.9599C38.9611 23.1297 41.5191 20.9405 43.385 17.7013C42.3178 21.0463 41.6161 23.1948 42.2758 24.0168C42.389 24.1593 42.5313 24.2529 42.6897 24.2529C42.7188 24.2529 42.7479 24.2529 42.7771 24.2447C43.3656 24.1308 45.7651 21.9008 47.5502 19.6383C47.1071 20.8672 47.133 22.1735 47.3497 22.6536C47.5017 22.9873 47.7668 23.1745 48.0967 23.1745C49.0992 23.1745 50.9651 21.384 53.3193 18.9262C53.2773 19.2517 53.2741 19.5895 53.3161 19.9272C53.4875 21.323 54.2022 22.0066 55.2855 21.795C56.993 21.4654 58.8492 18.9913 60.1492 16.7939C59.9228 18.2222 59.6415 20.1063 59.2793 22.5682C59.2049 23.0687 59.1273 23.5977 59.0465 24.1471C46.7126 26.9467 24.396 32.5664 -0.00976562 40.7375V43.0122C25.0136 33.1808 56.896 25.8114 56.896 25.8114C56.0034 26.1491 55.1012 26.4991 54.2054 26.8572C43.8313 30.9916 43.4012 32.5786 43.4012 32.5786C43.4012 32.5786 43.8313 34.0557 49.4905 37.8442C51.3564 39.0935 55.5475 41.4577 56.4982 41.4577C56.9218 41.4577 57.8273 38.4628 59.7062 25.966C63.0855 24.7452 66.5716 23.732 68.6639 23.2966V22.145C67.8554 22.3077 64.5537 22.91 60.0101 23.9314C60.0651 23.557 60.1233 23.1745 60.1783 22.7798L60.188 22.7676ZM28.1763 22.2101C29.1141 21.266 30.3785 20.7574 31.2452 20.7574C31.4845 20.7574 31.6947 20.798 31.8596 20.8754C32.1119 20.9974 32.1313 21.1643 32.141 21.2375C32.2186 21.8805 30.288 23.1989 27.0897 24.0819C27.2838 23.2681 27.7494 22.6414 28.1763 22.2101ZM56.0099 40.2817C55.444 40.1515 53.1997 38.9877 50.1664 36.9693C46.7223 34.6824 45.7295 33.2134 45.4029 32.6763C46.3181 31.5776 52.3783 28.6517 58.7328 26.3078C57.8402 32.249 56.7019 39.3092 56.0131 40.2777L56.0099 40.2817Z"
            fill="white" />
        <path d="M22.7666 38.9429H24.0504V42.1699H24.8815V38.9429H26.1654V38.0192H22.7666V38.9429Z"
            fill="white" />
        <path
            d="M29.748 38.2023C29.457 38.0233 29.1174 37.9297 28.7294 37.9297C28.3413 37.9297 28.0018 38.0192 27.7107 38.2023C27.4197 38.3814 27.1933 38.6337 27.0316 38.9592C26.8699 39.2848 26.7891 39.6632 26.7891 40.0945C26.7891 40.5259 26.8699 40.9043 27.0316 41.2299C27.1933 41.5554 27.4197 41.8077 27.7107 41.9868C28.0018 42.1658 28.3413 42.2594 28.7294 42.2594C29.1174 42.2594 29.457 42.1699 29.748 41.9868C30.0391 41.8077 30.2654 41.5513 30.4304 41.2299C30.592 40.9043 30.6729 40.5259 30.6729 40.0945C30.6729 39.6632 30.592 39.2848 30.4304 38.9592C30.2687 38.6337 30.0391 38.3814 29.748 38.2023ZM29.6995 40.7538C29.609 40.9369 29.4828 41.0793 29.3179 41.177C29.153 41.2746 28.959 41.3235 28.7294 41.3235C28.4998 41.3235 28.309 41.2746 28.144 41.177C27.9791 41.0793 27.853 40.9369 27.7624 40.7538C27.6719 40.5706 27.6266 40.3509 27.6266 40.0945C27.6266 39.8382 27.6719 39.6184 27.7624 39.4353C27.853 39.2522 27.9823 39.1098 28.144 39.0121C28.309 38.9145 28.503 38.8656 28.7294 38.8656C28.9557 38.8656 29.153 38.9145 29.3179 39.0121C29.4828 39.1098 29.609 39.2522 29.6995 39.4353C29.7901 39.6184 29.8321 39.8382 29.8321 40.0945C29.8321 40.3509 29.7868 40.5666 29.6995 40.7538Z"
            fill="white" />
        <path
            d="M35.4721 41.2014L34.6119 38.0192H33.7323L32.8753 41.2055L32.1316 38.0192H31.252L32.2868 42.1699H33.3507L34.1721 39.1912L34.9967 42.1699H36.0542L37.089 38.0192H36.2127L35.4721 41.2014Z"
            fill="white" />
        <path
            d="M38.7129 40.4852H40.7567V39.708H38.7129V38.8738H40.8764V38.0192H37.8818V42.1699H40.899V41.3194H38.7129V40.4852Z"
            fill="white" />
        <path
            d="M44.5042 40.4689C44.6885 40.3591 44.8308 40.2085 44.9343 40.0132C45.0378 39.8178 45.0895 39.59 45.0895 39.3336C45.0895 39.0772 45.0378 38.8412 44.9343 38.6459C44.8308 38.4506 44.6885 38.2959 44.5042 38.1861C44.3199 38.0762 44.1032 38.0192 43.8574 38.0192H41.9365V42.1699H42.7676V40.6317H43.2915L44.2325 42.1699H45.1962L44.2099 40.591C44.3166 40.5625 44.4169 40.5218 44.5074 40.4689H44.5042ZM43.7475 39.8463H42.7676V38.8168H43.7475C43.9027 38.8168 44.0256 38.8616 44.1161 38.9511C44.2067 39.0406 44.2519 39.1668 44.2519 39.3295C44.2519 39.4923 44.2067 39.6185 44.1161 39.708C44.0256 39.7975 43.9027 39.8423 43.7475 39.8423V39.8463Z"
            fill="white" />
    </g>
    <defs>
        <clipPath id="clip0_47_35">
            <rect width="78" height="43" fill="white" />
        </clipPath>
    </defs>
</svg>