<svg width="107" height="43" viewBox="0 0 107 43" fill="none" xmlns="http://www.w3.org/2000/svg">
    <g clip-path="url(#clip0_47_35)">
        <path d="M70.1714 13.9047L71.1296 12.3218L69.5415 11.748L68.7607 13.3676L70.1714 13.9047Z"
            fill="white" />
        <path
            d="M34.358 2.76712C41.8773 1.11907 50.9803 0.459846 53.4601 2.27474C54.2143 2.82409 54.5825 3.56877 54.5825 4.54133C54.5825 9.30237 43.532 15.0075 22.0566 18.9506C23.9819 15.0441 25.0776 12.5822 25.0998 12.5334L23.9331 12.098C23.9109 12.1509 22.6777 14.8732 20.3442 19.2558C17.9132 19.679 15.3624 20.0819 12.6786 20.4603V22.4787C14.9011 22.1653 17.0571 21.8235 19.1554 21.4573C17.4164 24.6273 15.2249 28.428 12.5987 32.5908L14.4708 33.2989C17.0437 28.7616 19.2485 24.554 20.9742 21.1277C41.8685 17.2497 55.8423 10.747 55.8423 4.54133C55.8423 3.21474 55.3056 2.14859 54.2498 1.37543C51.4151 -0.695828 42.5605 -0.272623 34.083 1.64807C13.5481 6.28297 4.05469 18.9343 4.05469 18.9343L5.75373 19.9395C5.75373 19.9395 16.365 6.71432 34.358 2.76712Z"
            fill="white" />
        <path
            d="M87.4407 12.8548C85.6973 14.1367 85.125 15.3615 85.125 16.8875C85.125 18.8001 86.4381 19.9964 89.0022 19.9964C95.0309 19.9964 106.556 12.2607 107 11.9677L105.842 10.515C105.842 10.515 94.7869 19.1663 88.9002 19.1663C86.3183 19.1663 86.3361 17.1601 86.3361 16.684C89.8229 16.741 93.0435 15.7644 94.5962 14.157C95.2439 13.4897 95.5233 12.7735 95.408 12.0858C95.3193 11.5567 94.9466 11.1498 94.3566 10.9382C92.7862 10.3767 89.6188 11.2556 87.4407 12.8589V12.8548ZM94.1614 12.2567C94.2147 12.5903 94.0372 12.9932 93.6513 13.3879C92.6044 14.4744 90.0624 15.5284 86.6732 15.5284H86.6155C87.0059 14.7471 87.7157 14.1245 88.2259 13.7501C90.1733 12.3218 92.8705 11.6381 93.8997 12.0044C94.1393 12.0898 94.157 12.1916 94.1659 12.2526L94.1614 12.2567Z"
            fill="white" />
        <path
            d="M82.5653 22.7676C83.3061 19.0971 84.0692 15.3167 84.4728 14.0675C84.6592 13.6036 84.8632 13.3065 84.8632 13.3065L83.8474 12.4764C83.8474 12.4764 83.4658 13.335 83.3239 13.6239C81.962 16.3218 78.5284 20.2487 75.6627 20.6475C75.0105 20.7411 74.5403 20.619 74.3939 19.7441C74.2342 18.7878 74.7932 17.8397 75.676 16.9892C75.7602 16.9241 75.849 16.8631 75.9244 16.802L75.9022 16.7776C77.619 15.2557 80.3251 14.1 81.6071 13.921V12.7816C80.192 12.981 77.1754 14.1733 75.1436 15.9108L75.1347 15.9027C74.6512 16.2567 74.0612 16.7125 73.4091 17.213C71.2664 18.8611 67.163 22.0066 66.0273 22.0066C64.7941 22.0066 69.2746 15.8905 69.4787 15.5202C69.4787 15.5161 67.9881 14.9179 67.9881 14.9179C67.7663 15.2638 67.4913 15.6992 67.1985 16.1876C64.9005 19.5203 60.6285 22.031 59.1114 22.8286C59.2533 22.1897 61.4581 17.0462 63.339 12.2119C70.4236 10.0918 81.2522 7.20261 94.2235 4.90754V3.5484C81.2699 6.00217 70.7385 8.93205 63.756 11.1213C64.5501 9.03378 65.251 7.07239 65.6458 5.64815L63.8004 5.3633C63.2902 7.67057 62.6381 9.78253 61.9549 11.6951C57.1151 13.2577 54.409 14.3238 54.3514 14.3442V15.1295C54.3514 15.1295 56.9598 14.1651 61.5646 12.749C61.5202 12.867 61.4758 12.9891 61.427 13.1071C60.043 16.9648 55.6245 20.9201 52.0579 22.8123C52.1067 22.3484 52.0934 21.8276 51.9958 21.2497C51.9425 20.9283 51.9292 20.6312 51.9425 20.3626C53.4153 19.1744 54.9813 17.6525 54.9813 17.6525C54.9813 17.1764 54.5333 16.7939 54.2449 16.6881C53.646 16.4765 52.8608 16.8183 52.3241 17.213C51.8716 17.5467 50.9622 18.7146 50.7137 20.1307C47.5064 22.6821 43.0702 25.8846 39.6588 26.3648C38.1505 26.5723 37.2056 26.198 37.0593 25.3231C37.0593 25.3109 37.0592 25.2946 37.0504 25.2824C40.9719 24.5255 45.6565 23.0768 45.3238 21.0707C45.2262 20.4929 44.8136 20.0452 44.1527 19.8092C42.5778 19.2477 39.7564 19.9232 37.8578 21.3148C36.6866 22.1775 35.9857 23.2193 35.8083 24.3302C32.5433 25.3475 31.9621 22.9751 31.8423 22.263L31.0838 21.9578C30.0767 21.7584 28.1337 23.7076 26.1374 26.1695L27.3618 23.1867L26.1862 22.7798L23.1741 30.1207L24.2876 30.6416C26.5988 27.4106 29.2383 23.8581 30.3607 23.1948C30.5692 24.0331 31.7226 26.2997 35.8171 25.5021C36.0212 26.7148 37.1879 27.8786 39.8452 27.5042C43.0747 27.0525 46.7256 24.2081 49.0502 22.5519C49.2409 22.4135 49.9152 21.9334 50.7315 21.3108C50.7359 21.3474 50.7448 21.3881 50.7492 21.4288C50.8912 22.2915 50.8158 22.971 50.6294 23.4797C49.6934 24.0901 47.848 24.2488 47.848 24.2488C47.848 24.2488 47.6306 24.5499 47.6306 24.8429C47.6306 25.5062 48.2916 25.9457 49.0546 25.9457C50.727 25.9457 51.7917 23.9599 51.7917 23.9599C53.4464 23.1297 56.9554 20.9405 59.5151 17.7013C58.0511 21.0463 57.0885 23.1948 57.9935 24.0168C58.1487 24.1593 58.3439 24.2529 58.5613 24.2529C58.6012 24.2529 58.6411 24.2529 58.6811 24.2447C59.4884 24.1308 62.7801 21.9008 65.2288 19.6383C64.6211 20.8672 64.6566 22.1735 64.9538 22.6536C65.1623 22.9873 65.526 23.1745 65.9785 23.1745C67.3537 23.1745 69.9134 21.384 73.1429 18.9262C73.0852 19.2517 73.0808 19.5895 73.1385 19.9272C73.3736 21.323 74.354 22.0066 75.8401 21.795C78.1824 21.4654 80.7287 18.9913 82.5121 16.7939C82.2015 18.2222 81.8156 20.1063 81.3187 22.5682C81.2167 23.0687 81.1102 23.5977 80.9993 24.1471C64.0799 26.9467 33.466 32.5664 -0.0136719 40.7375V43.0122C34.3133 33.1808 78.0493 25.8114 78.0493 25.8114C76.8249 26.1491 75.5872 26.4991 74.3584 26.8572C60.1272 30.9916 59.5372 32.5786 59.5372 32.5786C59.5372 32.5786 60.1272 34.0557 67.8905 37.8442C70.4502 39.0935 76.1994 41.4577 77.5037 41.4577C78.0848 41.4577 79.3269 38.4628 81.9043 25.966C86.5401 24.7452 91.3223 23.732 94.1925 23.2966V22.145C93.0834 22.3077 88.5541 22.91 82.3213 23.9314C82.3967 23.557 82.4766 23.1745 82.552 22.7798L82.5653 22.7676ZM38.6518 22.2101C39.9383 21.266 41.6729 20.7574 42.8617 20.7574C43.19 20.7574 43.4784 20.798 43.7046 20.8754C44.0506 20.9974 44.0772 21.1643 44.0906 21.2375C44.197 21.8805 41.5486 23.1989 37.1613 24.0819C37.4275 23.2681 38.0663 22.6414 38.6518 22.2101ZM76.8338 40.2817C76.0575 40.1515 72.9788 38.9877 68.8177 36.9693C64.0932 34.6824 62.7313 33.2134 62.2832 32.6763C63.5386 31.5776 71.852 28.6517 80.569 26.3078C79.3447 32.249 77.7831 39.3092 76.8382 40.2777L76.8338 40.2817Z"
            fill="white" />
        <path d="M31.2305 38.9429H32.9916V42.1699H34.1317V38.9429H35.8929V38.0192H31.2305V38.9429Z"
            fill="white" />
        <path
            d="M40.8081 38.2023C40.4088 38.0233 39.9431 37.9297 39.4107 37.9297C38.8784 37.9297 38.4126 38.0192 38.0133 38.2023C37.6141 38.3814 37.3035 38.6337 37.0817 38.9592C36.8599 39.2848 36.749 39.6632 36.749 40.0945C36.749 40.5259 36.8599 40.9043 37.0817 41.2299C37.3035 41.5554 37.6141 41.8077 38.0133 41.9868C38.4126 42.1658 38.8784 42.2594 39.4107 42.2594C39.9431 42.2594 40.4088 42.1699 40.8081 41.9868C41.2074 41.8077 41.5179 41.5513 41.7441 41.2299C41.9659 40.9043 42.0768 40.5259 42.0768 40.0945C42.0768 39.6632 41.9659 39.2848 41.7441 38.9592C41.5223 38.6337 41.2074 38.3814 40.8081 38.2023ZM40.7416 40.7538C40.6173 40.9369 40.4443 41.0793 40.2181 41.177C39.9919 41.2746 39.7257 41.3235 39.4107 41.3235C39.0957 41.3235 38.834 41.2746 38.6078 41.177C38.3815 41.0793 38.2085 40.9369 38.0843 40.7538C37.9601 40.5706 37.898 40.3509 37.898 40.0945C37.898 39.8382 37.9601 39.6184 38.0843 39.4353C38.2085 39.2522 38.386 39.1098 38.6078 39.0121C38.834 38.9145 39.1002 38.8656 39.4107 38.8656C39.7212 38.8656 39.9919 38.9145 40.2181 39.0121C40.4443 39.1098 40.6173 39.2522 40.7416 39.4353C40.8658 39.6184 40.9234 39.8382 40.9234 40.0945C40.9234 40.3509 40.8613 40.5666 40.7416 40.7538Z"
            fill="white" />
        <path
            d="M48.6603 41.2014L47.4803 38.0192H46.2736L45.098 41.2055L44.0777 38.0192H42.8711L44.2907 42.1699H45.7502L46.8769 39.1912L48.0082 42.1699H49.4588L50.8784 38.0192H49.6762L48.6603 41.2014Z"
            fill="white" />
        <path
            d="M53.1049 40.4852H55.9086V39.708H53.1049V38.8738H56.0727V38.0192H51.9648V42.1699H56.1038V41.3194H53.1049V40.4852Z"
            fill="white" />
        <path
            d="M61.0506 40.4689C61.3035 40.3591 61.4987 40.2085 61.6406 40.0132C61.7826 39.8178 61.8536 39.59 61.8536 39.3336C61.8536 39.0772 61.7826 38.8412 61.6406 38.6459C61.4987 38.4506 61.3035 38.2959 61.0506 38.1861C60.7978 38.0762 60.5005 38.0192 60.1634 38.0192H57.5283V42.1699H58.6684V40.6317H59.3871L60.678 42.1699H62L60.6469 40.591C60.7933 40.5625 60.9309 40.5218 61.0551 40.4689H61.0506ZM60.0126 39.8463H58.6684V38.8168H60.0126C60.2255 38.8168 60.3941 38.8616 60.5183 38.9511C60.6425 39.0406 60.7046 39.1668 60.7046 39.3295C60.7046 39.4923 60.6425 39.6185 60.5183 39.708C60.3941 39.7975 60.2255 39.8423 60.0126 39.8423V39.8463Z"
            fill="white" />
    </g>
    <defs>
        <clipPath id="clip0_47_35">
            <rect width="107" height="43" fill="white" />
        </clipPath>
    </defs>
</svg>